REM DIRINDEX 1\3,1\4,1\5,1\6,1\2\7,1\2\8,1\2\9,1\10
REM DIRNAME cjc056,folder01,folder02,folder03,folder04,folder05,folder06,folder07,folder08,folder09
TITLE ""
FILE "1-27 Level 2-237-246.mp3" MP3
  TRACK 01 AUDIO
    TITLE "0:"
    INDEX 01 00:00:00
  TRACK 02 AUDIO
    TITLE "7:cjc056_0810"
    INDEX 01 00:00:05
  TRACK 03 AUDIO
    TITLE "0:"
    INDEX 01 00:01:05
  TRACK 04 AUDIO
    TITLE "8:cjc056_0811"
    INDEX 01 00:01:21
  TRACK 05 AUDIO
    TITLE "0:"
    INDEX 01 00:02:45
  TRACK 06 AUDIO
    TITLE "9:cjc056_0812"
    INDEX 01 00:02:61
  TRACK 07 AUDIO
    TITLE "0:"
    INDEX 01 00:05:26
  TRACK 08 AUDIO
    TITLE "7:cjc056_0813"
    INDEX 01 00:06:04
  TRACK 09 AUDIO
    TITLE "0:"
    INDEX 01 00:07:35
  TRACK 10 AUDIO
    TITLE "8:cjc056_0814"
    INDEX 01 00:07:45
  TRACK 11 AUDIO
    TITLE "0:"
    INDEX 01 00:10:41
  TRACK 12 AUDIO
    TITLE "9:cjc056_0815"
    INDEX 01 00:10:53
  TRACK 13 AUDIO
    TITLE "0:"
    INDEX 01 00:12:65
  TRACK 14 AUDIO
    TITLE "7:cjc056_0816"
    INDEX 01 00:13:41
  TRACK 15 AUDIO
    TITLE "0:"
    INDEX 01 00:14:47
  TRACK 16 AUDIO
    TITLE "8:cjc056_0817"
    INDEX 01 00:14:56
  TRACK 17 AUDIO
    TITLE "0:"
    INDEX 01 00:16:73
  TRACK 18 AUDIO
    TITLE "9:cjc056_0818"
    INDEX 01 00:17:14
  TRACK 19 AUDIO
    TITLE "0:"
    INDEX 01 00:18:58
  TRACK 20 AUDIO
    TITLE "7:cjc056_0819"
    INDEX 01 00:19:36
  TRACK 21 AUDIO
    TITLE "0:"
    INDEX 01 00:20:36
  TRACK 22 AUDIO
    TITLE "8:cjc056_0820"
    INDEX 01 00:20:49
  TRACK 23 AUDIO
    TITLE "0:"
    INDEX 01 00:21:49
  TRACK 24 AUDIO
    TITLE "9:cjc056_0821"
    INDEX 01 00:21:60
  TRACK 25 AUDIO
    TITLE "0:"
    INDEX 01 00:24:08
  TRACK 26 AUDIO
    TITLE "7:cjc056_0822"
    INDEX 01 00:24:59
  TRACK 27 AUDIO
    TITLE "0:"
    INDEX 01 00:25:72
  TRACK 28 AUDIO
    TITLE "8:cjc056_0823"
    INDEX 01 00:26:09
  TRACK 29 AUDIO
    TITLE "0:"
    INDEX 01 00:27:24
  TRACK 30 AUDIO
    TITLE "9:cjc056_0824"
    INDEX 01 00:27:34
  TRACK 31 AUDIO
    TITLE "0:"
    INDEX 01 00:29:38
  TRACK 32 AUDIO
    TITLE "7:cjc056_0825"
    INDEX 01 00:30:14
  TRACK 33 AUDIO
    TITLE "0:"
    INDEX 01 00:31:26
  TRACK 34 AUDIO
    TITLE "8:cjc056_0826"
    INDEX 01 00:31:41
  TRACK 35 AUDIO
    TITLE "0:"
    INDEX 01 00:32:58
  TRACK 36 AUDIO
    TITLE "9:cjc056_0827"
    INDEX 01 00:32:66
  TRACK 37 AUDIO
    TITLE "0:"
    INDEX 01 00:34:32
  TRACK 38 AUDIO
    TITLE "7:cjc056_0828"
    INDEX 01 00:35:08
  TRACK 39 AUDIO
    TITLE "0:"
    INDEX 01 00:36:29
  TRACK 40 AUDIO
    TITLE "8:cjc056_0829"
    INDEX 01 00:36:44
  TRACK 41 AUDIO
    TITLE "0:"
    INDEX 01 00:37:46
  TRACK 42 AUDIO
    TITLE "9:cjc056_0830"
    INDEX 01 00:37:54
  TRACK 43 AUDIO
    TITLE "0:"
    INDEX 01 00:40:48
  TRACK 44 AUDIO
    TITLE "7:cjc056_0831"
    INDEX 01 00:41:26
  TRACK 45 AUDIO
    TITLE "0:"
    INDEX 01 00:42:43
  TRACK 46 AUDIO
    TITLE "8:cjc056_0832"
    INDEX 01 00:42:57
  TRACK 47 AUDIO
    TITLE "0:"
    INDEX 01 00:44:05
  TRACK 48 AUDIO
    TITLE "9:cjc056_0833"
    INDEX 01 00:44:18
  TRACK 49 AUDIO
    TITLE "0:"
    INDEX 01 00:46:47
  TRACK 50 AUDIO
    TITLE "7:cjc056_0834"
    INDEX 01 00:47:23
  TRACK 51 AUDIO
    TITLE "0:"
    INDEX 01 00:48:48
  TRACK 52 AUDIO
    TITLE "8:cjc056_0835"
    INDEX 01 00:48:59
  TRACK 53 AUDIO
    TITLE "0:"
    INDEX 01 00:49:70
  TRACK 54 AUDIO
    TITLE "9:cjc056_0836"
    INDEX 01 00:50:11
  TRACK 55 AUDIO
    TITLE "0:"
    INDEX 01 00:51:71
  TRACK 56 AUDIO
    TITLE "7:cjc056_0837"
    INDEX 01 00:52:49
  TRACK 57 AUDIO
    TITLE "0:"
    INDEX 01 00:53:39
  TRACK 58 AUDIO
    TITLE "8:cjc056_0838"
    INDEX 01 00:53:53
  TRACK 59 AUDIO
    TITLE "0:"
    INDEX 01 00:54:58
  TRACK 60 AUDIO
    TITLE "9:cjc056_0839"
    INDEX 01 00:54:74
  TRACK 61 AUDIO
    TITLE "0:"
    INDEX 01 00:56:37
  TRACK 62 AUDIO
    TITLE "7:cjc056_0840"
    INDEX 01 00:57:13
  TRACK 63 AUDIO
    TITLE "0:"
    INDEX 01 00:58:15
  TRACK 64 AUDIO
    TITLE "8:cjc056_0841"
    INDEX 01 00:58:28
  TRACK 65 AUDIO
    TITLE "0:"
    INDEX 01 00:59:63
  TRACK 66 AUDIO
    TITLE "9:cjc056_0842"
    INDEX 01 01:00:02
  TRACK 67 AUDIO
    TITLE "0:"
    INDEX 01 01:01:54
